<svg xmlns="http://www.w3.org/2000/svg" viewBox="0 0 24 24" fill="none" stroke="currentColor" stroke-width="2" stroke-linecap="round" stroke-linejoin="round">
  <!-- Fan blade 1 (top) -->
  <path d="M12 12C12 12 11 6 8 4C5 2 2 4 3 7C4 10 9 11 12 12Z" fill="currentColor" stroke="none"/>
  <!-- Fan blade 2 (bottom-right) -->
  <path d="M12 12C12 12 17 14 20 13C23 12 23 8 20 8C17 8 14 10 12 12Z" fill="currentColor" stroke="none"/>
  <!-- Fan blade 3 (bottom-left) -->
  <path d="M12 12C12 12 8 17 8 20C8 23 12 23 13 20C14 17 13 14 12 12Z" fill="currentColor" stroke="none"/>
  <!-- Center hub -->
  <circle cx="12" cy="12" r="2" fill="currentColor" stroke="none"/>
</svg>
