<svg xmlns="http://www.w3.org/2000/svg" viewBox="0 0 100 100" width="100" height="100">
  <g fill="none" stroke="#000" stroke-linecap="round" stroke-linejoin="round">
    <!-- Center hub -->
    <circle cx="50" cy="50" r="6" stroke-width="3"/>
    <!-- Top blade -->
    <path d="M50 44 C50 30, 38 18, 30 20 C22 22, 26 36, 44 44" stroke-width="2.5"/>
    <!-- Right blade -->
    <path d="M56 50 C70 50, 82 38, 80 30 C78 22, 64 26, 56 44" stroke-width="2.5"/>
    <!-- Bottom blade -->
    <path d="M50 56 C50 70, 62 82, 70 80 C78 78, 74 64, 56 56" stroke-width="2.5"/>
    <!-- Left blade -->
    <path d="M44 50 C30 50, 18 62, 20 70 C22 78, 36 74, 44 56" stroke-width="2.5"/>
    <!-- Outer circle -->
    <circle cx="50" cy="50" r="42" stroke-width="3.8"/>
  </g>
</svg>
